C:\GBW_MyPrograms\KinderuniversiteitApp\Resultaten\Ellis_v10102025\MrImpossible\MrImpossible_v1.mot
version=1
nRows=18
nColumns=29
inDegrees=yes
endheader
                time	         pelvis_tilt	           pelvis_tx	           pelvis_ty	       hip_flexion_l	       hip_flexion_r	        knee_angle_l	        knee_angle_r	       ankle_angle_l	       ankle_angle_r	    lumbar_extension	hamstrings_r/activation	bifemsh_r/activation	glut_max_r/activation	iliopsoas_r/activation	rect_fem_r/activation	  vasti_r/activation	gastroc_r/activation	 soleus_r/activation	tib_ant_r/activation	hamstrings_l/activation	bifemsh_l/activation	glut_max_l/activation	iliopsoas_l/activation	rect_fem_l/activation	  vasti_l/activation	gastroc_l/activation	 soleus_l/activation	tib_ant_l/activation	
          0.49391841	          0.49942621	          0.65691148	          0.89492234	         26.64569145	        -18.11183959	        -16.76211182	        -13.98158947	         11.10071669	          5.64040779	         -6.70757120	          0.05000000	          0.10627032	          0.05000000	          0.38871420	          0.05000000	          0.05000000	          0.09198897	          0.14543656	          0.05000000	          0.16122941	          0.05000002	          0.05252967	          0.05000000	          0.05823201	          0.07469932	          0.05532230	          0.05176200	          0.23588284	
          0.50379678	          0.45290185	          0.67356920	          0.89440377	         25.84033328	        -17.33327543	        -16.84404083	        -17.08275221	         10.92618138	          4.25331522	         -6.24239489	          0.05000000	          0.09124739	          0.05683212	          0.35260784	          0.05000006	          0.05000000	          0.07898493	          0.12487690	          0.05000000	          0.14265048	          0.07470868	          0.06793863	          0.05000002	          0.05000003	          0.10690281	          0.06083466	          0.05823197	          0.22998869	
          0.51367514	          0.41312472	          0.69026236	          0.89378308	         24.94255657	        -16.37583151	        -17.15576391	        -20.45925652	         10.85937205	          2.66766864	         -5.77750381	          0.07452333	          0.07834819	          0.06026930	          0.30276137	          0.05000000	          0.05000000	          0.06781921	          0.10722365	          0.17957184	          0.12292100	          0.06781923	          0.12275912	          0.05000000	          0.05000000	          0.15155502	          0.05223476	          0.05000000	          0.25652974	
          0.52355351	          0.37556192	          0.70654265	          0.89321662	         24.05510363	        -15.25110082	        -17.43003252	        -23.97635450	         10.68219750	          1.48168959	         -5.36510280	          0.06398837	          0.06727249	          0.06011649	          0.28160604	          0.05000000	          0.05000000	          0.05823194	          0.09206596	          0.16750889	          0.10554425	          0.05823196	          0.13609881	          0.05000000	          0.05000000	          0.19516239	          0.05000000	          0.05000000	          0.26916348	
          0.53343188	          0.33594756	          0.72208752	          0.89296462	         23.32536652	        -14.02150486	        -17.88576316	        -27.26982644	         10.49854547	          1.48359281	         -5.04112613	          0.06646841	          0.06962488	          0.05161811	          0.24454614	          0.05000000	          0.05000000	          0.05000000	          0.07905104	          0.21468854	          0.09062397	          0.05000000	          0.11932391	          0.05000000	          0.05000000	          0.23976769	          0.05000000	          0.05000000	          0.27801068	
          0.54331025	          0.29567414	          0.73690169	          0.89328787	         22.69426167	        -12.71626634	        -18.42667757	        -30.22085324	         10.35886483	          1.80367004	         -4.80514908	          0.06567693	          0.10540621	          0.05000000	          0.21766986	          0.05000001	          0.05000000	          0.05000004	          0.06787598	          0.20783558	          0.07781290	          0.05000000	          0.10245566	          0.05000000	          0.05548995	          0.27874680	          0.05000000	          0.05000000	          0.28662008	
          0.55318862	          0.25416475	          0.75112488	          0.89425004	         22.01033903	        -11.36483892	        -18.80123858	        -32.79413697	         10.28236985	          2.30856499	         -4.63744037	          0.10753110	          0.14539573	          0.05000000	          0.18689894	          0.08647007	          0.05000000	          0.05324148	          0.05828068	          0.20309666	          0.07037022	          0.05000007	          0.08797200	          0.05000000	          0.05000000	          0.29744549	          0.05000000	          0.05000000	          0.28940482	
          0.56306698	          0.21151093	          0.76488227	          0.89583267	         21.18251180	         -9.98934420	        -18.86864152	        -34.98224849	         10.29623457	          2.92009908	         -4.52159673	          0.14281868	          0.17978216	          0.05000000	          0.16047794	          0.11331678	          0.05000000	          0.05718594	          0.05004182	          0.19268978	          0.06843895	          0.05350614	          0.07624819	          0.05000000	          0.05000000	          0.29131745	          0.05000000	          0.05000000	          0.28580838	
          0.57294535	          0.16785572	          0.77824934	          0.89796328	         20.20982454	         -8.60034516	        -18.63695337	        -36.79789547	         10.39384761	          3.50692452	         -4.44826456	          0.12477253	          0.21652602	          0.05000000	          0.13779195	          0.13591294	          0.05000000	          0.05172452	          0.05000000	          0.18976092	          0.06879969	          0.05290143	          0.06991553	          0.05000000	          0.05000000	          0.26664869	          0.05000000	          0.05000000	          0.27702428	
          0.58282372	          0.12464741	          0.79128252	          0.90052085	         19.12864034	         -7.20628831	        -18.17685824	        -38.26800896	         10.54405018	          4.01726965	         -4.41241537	          0.10713404	          0.25607494	          0.05000000	          0.11902796	          0.15351600	          0.05000000	          0.05152249	          0.05000000	          0.18707446	          0.06777149	          0.05000003	          0.06644203	          0.05000000	          0.05000000	          0.23386962	          0.05000000	          0.05000000	          0.26656476	
          0.59270209	          0.08376129	          0.80402885	          0.90335355	         17.98076381	         -5.80984654	        -17.56776023	        -39.43442035	         10.71054394	          4.48501831	         -4.41090257	          0.09198902	          0.29743388	          0.05000000	          0.10529895	          0.16495165	          0.05000000	          0.05026943	          0.05000000	          0.18619979	          0.06684831	          0.05000001	          0.06546502	          0.05000000	          0.05000000	          0.20180998	          0.05000000	          0.05000000	          0.25573622	
          0.60258046	          0.04713890	          0.81652288	          0.90630425	         16.80149784	         -4.40195626	        -16.87773986	        -40.36660044	         10.86739792	          4.93291197	         -4.44227709	          0.07898498	          0.33751725	          0.05000000	          0.09524733	          0.17171942	          0.05000000	          0.05000002	          0.05000000	          0.18653093	          0.06510845	          0.05000000	          0.06581253	          0.05000000	          0.05000000	          0.17513548	          0.05000000	          0.05000000	          0.24620827	
          0.61245883	          0.01642582	          0.82878934	          0.90923330	         15.61468594	         -2.96672287	        -16.15385830	        -41.14694838	         10.99920478	          5.36230668	         -4.50592723	          0.06781926	          0.37282820	          0.05000000	          0.08792551	          0.17484801	          0.05000000	          0.05000001	          0.05000000	          0.18726712	          0.06286632	          0.05000000	          0.06653377	          0.05000000	          0.05000000	          0.15535231	          0.05000000	          0.05000000	          0.23849145	
          0.62233719	         -0.00714126	          0.84084804	          0.91203003	         14.43303413	         -1.48847438	        -15.42306743	        -41.85200709	         11.10145978	          5.77906442	         -4.60128330	          0.05823198	          0.40004263	          0.05000000	          0.08250563	          0.17538558	          0.05000000	          0.05000000	          0.05000000	          0.18828086	          0.06029739	          0.05000000	          0.06651523	          0.05000000	          0.05000000	          0.14180793	          0.05000000	          0.05000015	          0.23234398	
          0.63221556	         -0.02273079	          0.85271870	          0.91461516	         13.26056263	          0.04290347	        -14.69616508	        -42.53783439	         11.17230447	          6.18620665	         -4.72720865	          0.05000001	          0.41745843	          0.05000000	          0.07838631	          0.17410821	          0.05000000	          0.05000000	          0.05000000	          0.18936690	          0.05775004	          0.05000000	          0.06613705	          0.05000000	          0.05226367	          0.13267784	          0.05000000	          0.05070924	          0.22858241	
          0.64209393	         -0.02989526	          0.86442423	          0.91693702	         12.09476955	          1.62962634	        -13.97162398	        -43.23538621	         11.21014616	          6.58496207	         -4.88163100	          0.05000000	          0.42510081	          0.05000000	          0.07408763	          0.17105470	          0.05000000	          0.05000000	          0.05000000	          0.19036239	          0.05618996	          0.05000000	          0.06527140	          0.05000000	          0.06876028	          0.12619165	          0.05000000	          0.05162246	          0.22684323	
          0.65197230	         -0.02844775	          0.87599161	          0.91896604	         10.92801168	          3.26700142	        -13.23921264	        -43.95756463	         11.22035430	          6.97512641	         -5.06161296	          0.05000000	          0.42461469	          0.05000000	          0.07142657	          0.16747172	          0.05000000	          0.05000000	          0.05000000	          0.19130279	          0.05449502	          0.05000000	          0.06458645	          0.05000000	          0.08353574	          0.12072770	          0.05000000	          0.05306349	          0.22643335	
          0.66185067	         -0.01843664	          0.88744931	          0.92068988	          9.75273403	          4.94506047	        -12.49002790	        -44.70193247	         11.21211215	          7.35526661	         -5.26373978	          0.05000000	          0.41692291	          0.05000000	          0.06979435	          0.16323599	          0.05000000	          0.05000001	          0.05000000	          0.19213253	          0.05320111	          0.05000000	          0.06333612	          0.05000000	          0.09889577	          0.11556208	          0.05000000	          0.05490217	          0.22692399	
